<svg width="64" height="64" viewBox="0 0 64 64" fill="none" xmlns="http://www.w3.org/2000/svg">
  <defs>
    <linearGradient id="fav-bg" x1="0" y1="0" x2="64" y2="64" gradientUnits="userSpaceOnUse">
      <stop offset="0%" stop-color="#0B1120"/>
      <stop offset="100%" stop-color="#020409"/>
    </linearGradient>
    <linearGradient id="fav-border" x1="0" y1="0" x2="64" y2="64" gradientUnits="userSpaceOnUse">
      <stop offset="0%" stop-color="#38BDF8" stop-opacity="0.8"/>
      <stop offset="100%" stop-color="#6366F1" stop-opacity="0.4"/>
    </linearGradient>
    <linearGradient id="fav-top" x1="20" y1="16" x2="48" y2="24" gradientUnits="userSpaceOnUse">
      <stop offset="0%" stop-color="#E0F2FE"/>
      <stop offset="40%" stop-color="#38BDF8"/>
      <stop offset="100%" stop-color="#0284C7"/>
    </linearGradient>
    <linearGradient id="fav-mid" x1="24" y1="28" x2="42" y2="34" gradientUnits="userSpaceOnUse">
      <stop offset="0%" stop-color="#38BDF8"/>
      <stop offset="100%" stop-color="#4F46E5"/>
    </linearGradient>
    <linearGradient id="fav-stem" x1="20" y1="16" x2="28" y2="48" gradientUnits="userSpaceOnUse">
      <stop offset="0%" stop-color="#38BDF8"/>
      <stop offset="60%" stop-color="#0284C7"/>
      <stop offset="100%" stop-color="#1E1B4B"/>
    </linearGradient>
  </defs>
  <rect width="64" height="64" rx="16" fill="url(#fav-bg)"/>
  <rect x="1" y="1" width="62" height="62" rx="15" stroke="url(#fav-border)" stroke-width="1.5" fill="none"/>
  
  <!-- F Stem -->
  <path d="M 21 17 C 21 15.5 22 14.5 23.5 14.5 H 28 C 29.5 14.5 30.5 15.5 30.5 17 V 44 C 30.5 45.5 29 47 27 47 H 24.5 C 22.5 47 21 45.5 21 44 Z" fill="url(#fav-stem)"/>
  
  <!-- F Top Bar -->
  <path d="M 21 18 C 21 16 22.5 14.5 24.5 14.5 H 44 C 46 14.5 47.5 16 47 18 L 46 22 C 45.8 23.2 44.8 24 43.5 24 H 28 C 26.5 24 25.5 25 25.5 26.5 V 27 H 23 C 21.8 27 21 26 21 25 Z" fill="url(#fav-top)"/>
  
  <!-- F Mid Bar -->
  <path d="M 25 29 C 25 27.5 26.2 26.5 27.5 26.5 H 39 C 40.5 26.5 41.8 27.8 41.5 29.2 L 41 31.5 C 40.8 32.5 39.8 33.2 38.8 33.2 H 27.5 C 26.2 33.2 25 32 25 30.5 Z" fill="url(#fav-mid)"/>
  
  <!-- Forged Bolt Accent -->
  <path d="M 28 33 L 25 39 H 29 L 27 45 L 33 37 H 29 L 31 33 Z" fill="#38BDF8" stroke="#020409" stroke-width="0.8"/>
  
  <!-- Spark -->
  <circle cx="48" cy="16" r="1.5" fill="#FFFFFF"/>
</svg>
